REM DIRINDEX 1\2,1\3,1\4,1\5,1\6
REM DIRNAME folder01,folder02,folder03,folder04,folder05,folder06
TITLE ""
FILE "DISC1Track14.mp3" MP3
  TRACK 01 AUDIO
    TITLE "0:"
    INDEX 01 00:00:00
  TRACK 02 AUDIO
    TITLE "3:cjc129_0365"
    INDEX 01 00:00:05
  TRACK 03 AUDIO
    TITLE "0:"
    INDEX 01 00:01:24
  TRACK 04 AUDIO
    TITLE "5:cjc129_0366"
    INDEX 01 00:01:58
  TRACK 05 AUDIO
    TITLE "0:"
    INDEX 01 00:03:41
  TRACK 06 AUDIO
    TITLE "4:cjc129_0367"
    INDEX 01 00:04:35
  TRACK 07 AUDIO
    TITLE "0:"
    INDEX 01 00:05:50
  TRACK 08 AUDIO
    TITLE "6:cjc129_0368"
    INDEX 01 00:06:10
  TRACK 09 AUDIO
    TITLE "0:"
    INDEX 01 00:10:41
  TRACK 10 AUDIO
    TITLE "3:cjc129_0369"
    INDEX 01 00:12:18
  TRACK 11 AUDIO
    TITLE "0:"
    INDEX 01 00:15:42
  TRACK 12 AUDIO
    TITLE "5:cjc129_0370"
    INDEX 01 00:16:00
  TRACK 13 AUDIO
    TITLE "0:"
    INDEX 01 00:20:53
  TRACK 14 AUDIO
    TITLE "4:cjc129_0371"
    INDEX 01 00:21:43
  TRACK 15 AUDIO
    TITLE "0:"
    INDEX 01 00:24:65
  TRACK 16 AUDIO
    TITLE "6:cjc129_0372"
    INDEX 01 00:25:25
  TRACK 17 AUDIO
    TITLE "0:"
    INDEX 01 00:29:58
  TRACK 18 AUDIO
    TITLE "3:cjc129_0373"
    INDEX 01 00:31:31
  TRACK 19 AUDIO
    TITLE "0:"
    INDEX 01 00:32:54
  TRACK 20 AUDIO
    TITLE "5:cjc129_0374"
    INDEX 01 00:34:24
  TRACK 21 AUDIO
    TITLE "0:"
    INDEX 01 00:40:48
  TRACK 22 AUDIO
    TITLE "4:cjc129_0375"
    INDEX 01 00:41:40
  TRACK 23 AUDIO
    TITLE "0:"
    INDEX 01 00:42:63
  TRACK 24 AUDIO
    TITLE "6:cjc129_0376"
    INDEX 01 00:43:17
  TRACK 25 AUDIO
    TITLE "0:"
    INDEX 01 00:47:05
  TRACK 26 AUDIO
    TITLE "3:cjc129_0377"
    INDEX 01 00:48:61
  TRACK 27 AUDIO
    TITLE "0:"
    INDEX 01 00:50:05
  TRACK 28 AUDIO
    TITLE "5:cjc129_0378"
    INDEX 01 00:51:38
  TRACK 29 AUDIO
    TITLE "0:"
    INDEX 01 00:58:30
  TRACK 30 AUDIO
    TITLE "4:cjc129_0379"
    INDEX 01 00:59:22
  TRACK 31 AUDIO
    TITLE "0:"
    INDEX 01 01:00:41
  TRACK 32 AUDIO
    TITLE "6:cjc129_0380"
    INDEX 01 01:00:74
  TRACK 33 AUDIO
    TITLE "0:"
    INDEX 01 01:07:08
  TRACK 34 AUDIO
    TITLE "3:cjc129_0381"
    INDEX 01 01:08:58
  TRACK 35 AUDIO
    TITLE "0:"
    INDEX 01 01:10:06
  TRACK 36 AUDIO
    TITLE "5:cjc129_0382"
    INDEX 01 01:10:35
  TRACK 37 AUDIO
    TITLE "0:"
    INDEX 01 01:12:38
  TRACK 38 AUDIO
    TITLE "4:cjc129_0383"
    INDEX 01 01:13:28
  TRACK 39 AUDIO
    TITLE "0:"
    INDEX 01 01:14:51
  TRACK 40 AUDIO
    TITLE "6:cjc129_0384"
    INDEX 01 01:15:07
  TRACK 41 AUDIO
    TITLE "0:"
    INDEX 01 01:20:38
  TRACK 42 AUDIO
    TITLE "3:cjc129_0385"
    INDEX 01 01:22:11
  TRACK 43 AUDIO
    TITLE "0:"
    INDEX 01 01:23:22
  TRACK 44 AUDIO
    TITLE "5:cjc129_0386"
    INDEX 01 01:24:67
  TRACK 45 AUDIO
    TITLE "0:"
    INDEX 01 01:28:49
  TRACK 46 AUDIO
    TITLE "4:cjc129_0387"
    INDEX 01 01:29:35
  TRACK 47 AUDIO
    TITLE "0:"
    INDEX 01 01:30:44
  TRACK 48 AUDIO
    TITLE "6:cjc129_0388"
    INDEX 01 01:31:02
  TRACK 49 AUDIO
    TITLE "0:"
    INDEX 01 01:34:59
  TRACK 50 AUDIO
    TITLE "3:cjc129_0389"
    INDEX 01 01:36:39
  TRACK 51 AUDIO
    TITLE "0:"
    INDEX 01 01:37:48
  TRACK 52 AUDIO
    TITLE "5:cjc129_0390"
    INDEX 01 01:39:04
  TRACK 53 AUDIO
    TITLE "0:"
    INDEX 01 01:47:54
  TRACK 54 AUDIO
    TITLE "4:cjc129_0391"
    INDEX 01 01:48:44
  TRACK 55 AUDIO
    TITLE "0:"
    INDEX 01 01:49:53
  TRACK 56 AUDIO
    TITLE "6:cjc129_0392"
    INDEX 01 01:50:11
  TRACK 57 AUDIO
    TITLE "0:"
    INDEX 01 01:55:56
  TRACK 58 AUDIO
    TITLE "3:cjc129_0393"
    INDEX 01 01:57:31
  TRACK 59 AUDIO
    TITLE "0:"
    INDEX 01 01:59:44
  TRACK 60 AUDIO
    TITLE "5:cjc129_0394"
    INDEX 01 01:59:71
  TRACK 61 AUDIO
    TITLE "0:"
    INDEX 01 02:04:12
  TRACK 62 AUDIO
    TITLE "4:cjc129_0395"
    INDEX 01 02:05:03
  TRACK 63 AUDIO
    TITLE "0:"
    INDEX 01 02:07:14
  TRACK 64 AUDIO
    TITLE "6:cjc129_0396"
    INDEX 01 02:07:63
  TRACK 65 AUDIO
    TITLE "0:"
    INDEX 01 02:12:74
